<?xml version="1.0" encoding="UTF-8"?>
<svg width="15px" height="15px" viewBox="0 0 15 15" version="1.1" xmlns="http://www.w3.org/2000/svg" xmlns:xlink="http://www.w3.org/1999/xlink">
    <!-- Generator: Sketch 51.3 (57544) - http://www.bohemiancoding.com/sketch -->
    <title>icons8-linkedin</title>
    <desc>Created with Sketch.</desc>
    <defs></defs>
    <g id="Page-1" stroke="none" stroke-width="1" fill="none" fill-rule="evenodd" opacity="0.766183036">
        <g id="homepage--" transform="translate(-636.000000, -2402.000000)" fill="#000000" fill-rule="nonzero">
            <g id="icons8-linkedin" transform="translate(636.000000, 2402.000000)">
                <path d="M13.3333333,0 L1.66666667,0 C0.745833333,0 0,0.745833333 0,1.66666667 L0,13.3333333 C0,14.2541667 0.745833333,15 1.66666667,15 L13.3333333,15 C14.2541667,15 15,14.2541667 15,13.3333333 L15,1.66666667 C15,0.745833333 14.2541667,0 13.3333333,0 Z M5,11.6666667 L2.8975,11.6666667 L2.8975,5.83333333 L5,5.83333333 L5,11.6666667 Z M3.91166667,4.76416667 C3.26916667,4.76416667 2.84,4.33583333 2.84,3.76416667 C2.84,3.1925 3.26833333,2.76416667 3.9825,2.76416667 C4.625,2.76416667 5.05416667,3.1925 5.05416667,3.76416667 C5.05416667,4.33583333 4.62583333,4.76416667 3.91166667,4.76416667 Z M12.5,11.6666667 L10.465,11.6666667 L10.465,8.47833333 C10.465,7.59666667 9.9225,7.39333333 9.71916667,7.39333333 C9.51583333,7.39333333 8.8375,7.52916667 8.8375,8.47833333 C8.8375,8.61416667 8.8375,11.6666667 8.8375,11.6666667 L6.735,11.6666667 L6.735,5.83333333 L8.8375,5.83333333 L8.8375,6.6475 C9.10833333,6.1725 9.65083333,5.83333333 10.6683333,5.83333333 C11.6858333,5.83333333 12.5,6.6475 12.5,8.47833333 L12.5,11.6666667 Z" id="Shape"></path>
            </g>
        </g>
    </g>
</svg>