<?xml version="1.0" encoding="UTF-8"?>
<svg width="18px" height="15px" viewBox="0 0 18 15" version="1.1" xmlns="http://www.w3.org/2000/svg" xmlns:xlink="http://www.w3.org/1999/xlink">
    <!-- Generator: Sketch 51.3 (57544) - http://www.bohemiancoding.com/sketch -->
    <title>icons8-medium-filled</title>
    <desc>Created with Sketch.</desc>
    <defs></defs>
    <g id="Page-1" stroke="none" stroke-width="1" fill="none" fill-rule="evenodd" opacity="0.766183036">
        <g id="homepage--" transform="translate(-786.000000, -2402.000000)" fill="#000000" fill-rule="nonzero">
            <g id="icons8-medium-filled" style="mix-blend-mode: luminosity;" transform="translate(786.000000, 2402.000000)">
                <path d="M5.83333333,14.4075521 C5.83333333,14.7786458 5.63476583,15 5.35319,15 C5.25390625,15 5.14322917,14.9723308 5.02604167,14.9137371 L0.48502625,12.6139325 C0.218099167,12.4788413 0,12.1207683 0,11.8196617 L0,0.546875 C0,0.249023333 0.1578775,0.0732420833 0.384114583,0.0732420833 C0.463867083,0.0732420833 0.553385417,0.09440125 0.64615875,0.141601667 L0.805664167,0.222981667 C0.805664167,0.222981667 0.807291667,0.222981667 0.807291667,0.222981667 L5.81217458,2.75716167 C5.8203125,2.76204417 5.82682292,2.7701825 5.83333333,2.77669292 L5.83333333,14.4075521 Z M11.0774742,0.784505417 L11.3834637,0.281575417 C11.4925129,0.102539167 11.6927083,0 11.8961587,0 C11.9433596,0 11.9921875,0.00651041667 12.0393879,0.01953125 C12.0751954,0.0276691667 12.1126304,0.04069 12.1516929,0.06022125 L17.4300129,2.7327475 C17.4316408,2.7327475 17.4316408,2.734375 17.4316408,2.734375 L17.4365233,2.7360025 C17.4397787,2.73763042 17.4397787,2.74251292 17.4430337,2.74414083 C17.4690754,2.76529958 17.4804687,2.80110667 17.462565,2.83040375 L12.2054037,11.4827475 L11.6682942,12.3649087 L8.18522125,5.54362 L11.0774742,0.784505417 Z M6.66666667,9.83561208 L6.66666667,4.40104167 L10.4085287,11.7317708 L7.04264333,10.0276692 L6.66666667,9.83561208 Z M17.5,14.4075521 C17.5,14.7558596 17.2932942,14.9544271 16.9889325,14.9544271 C16.8522138,14.9544271 16.6959638,14.9153646 16.5315754,14.8323567 L15.777995,14.44987 L12.4121096,12.7457683 L17.5,4.3733725 L17.5,14.4075521 Z" id="Shape"></path>
            </g>
        </g>
    </g>
</svg>