<?xml version="1.0" encoding="UTF-8"?>
<svg width="15px" height="15px" viewBox="0 0 15 15" version="1.1" xmlns="http://www.w3.org/2000/svg" xmlns:xlink="http://www.w3.org/1999/xlink">
    <!-- Generator: Sketch 51.3 (57544) - http://www.bohemiancoding.com/sketch -->
    <title>icons8-instagram</title>
    <desc>Created with Sketch.</desc>
    <defs></defs>
    <g id="Page-1" stroke="none" stroke-width="1" fill="none" fill-rule="evenodd" opacity="0.766183036">
        <g id="homepage--" transform="translate(-684.000000, -2402.000000)" fill="#000000" fill-rule="nonzero">
            <g id="icons8-instagram" transform="translate(684.000000, 2402.000000)">
                <path d="M4.16666667,0 C1.86583333,0 0,1.86583333 0,4.16666667 L0,10.8333333 C0,13.1341667 1.86583333,15 4.16666667,15 L10.8333333,15 C13.1341667,15 15,13.1341667 15,10.8333333 L15,4.16666667 C15,1.86583333 13.1341667,0 10.8333333,0 L4.16666667,0 Z M12.5,1.66666667 C12.96,1.66666667 13.3333333,2.04 13.3333333,2.5 C13.3333333,2.96 12.96,3.33333333 12.5,3.33333333 C12.04,3.33333333 11.6666667,2.96 11.6666667,2.5 C11.6666667,2.04 12.04,1.66666667 12.5,1.66666667 Z M7.5,3.33333333 C9.80083333,3.33333333 11.6666667,5.19916667 11.6666667,7.5 C11.6666667,9.80083333 9.80083333,11.6666667 7.5,11.6666667 C5.19916667,11.6666667 3.33333333,9.80083333 3.33333333,7.5 C3.33333333,5.19916667 5.19916667,3.33333333 7.5,3.33333333 Z M7.5,5 C6.11928813,5 5,6.11928813 5,7.5 C5,8.88071187 6.11928813,10 7.5,10 C8.88071187,10 10,8.88071187 10,7.5 C10,6.11928813 8.88071187,5 7.5,5 Z" id="Shape"></path>
            </g>
        </g>
    </g>
</svg>