<?xml version="1.0" encoding="UTF-8"?>
<svg width="295px" height="106px" viewBox="0 0 295 106" version="1.1" xmlns="http://www.w3.org/2000/svg" xmlns:xlink="http://www.w3.org/1999/xlink">
    <!-- Generator: Sketch 51.3 (57544) - http://www.bohemiancoding.com/sketch -->
    <title>Group 2</title>
    <desc>Created with Sketch.</desc>
    <defs></defs>
    <g id="Page-1" stroke="none" stroke-width="1" fill="none" fill-rule="evenodd">
        <g id="homepage-CP-Copy-2" transform="translate(-733.000000, -811.000000)">
            <g id="Group-2" transform="translate(733.000000, 811.000000)">
                <path d="M99.1813987,102.033629 C99.3812947,100.559593 99.7485592,99.168256 99.14414,97.5026409 C97.8075574,99.3024859 95.8653728,100.5571 94.2957753,102.233935 C96.1291408,102.158717 97.6325006,102.097212 99.1813987,102.033629 Z M8.48421409,82.1904518 C6.53611535,82.5515845 4.97302338,82.2033346 3.40874859,82.3068122 C2.83685682,82.3450449 1.92608813,82.3836931 2.08044568,82.898172 C2.42227965,84.0405812 2.11356455,85.281481 3.1006249,86.4770835 C4.72226629,85.0005539 6.80106624,83.9466618 8.48421409,82.1904518 Z M88.0221167,102.456682 C89.3723017,102.514031 90.7337235,102.816984 91.7864301,101.987085 C93.7292062,100.454869 95.4921942,98.8179283 97.146363,97.131119 C97.9009999,96.361894 99.2032808,95.7106917 99.4209191,94.8816243 C99.7881836,93.4844691 99.5214585,92.0050306 99.5214585,90.4221145 C97.3693239,92.4185254 95.7908553,94.5254786 93.9066287,96.4898904 C91.993423,98.4833923 89.7301037,100.307756 88.0221167,102.456682 Z M3.84934773,91.9227472 C8.91653351,88.7419543 13.9458692,85.5848491 19.0810669,82.3608366 C17.0217834,81.9606402 15.1564818,82.2220354 13.3083311,82.1717511 C11.6417427,82.1264537 10.5766164,82.5748565 9.70428929,83.4625197 C8.45937495,84.7296006 6.94418704,85.8308681 5.34561057,86.8702152 C2.96164396,88.4190544 2.56835748,89.5830733 3.84934773,91.9227472 Z M73.8850942,82.1858805 C72.3060342,82.1858805 70.873052,82.3408891 69.5429749,82.1464011 C67.8811177,81.9037067 67.0271242,82.4335618 66.0719999,83.2227342 C63.5165249,85.3342588 60.8327143,87.3684868 58.2553572,89.4675441 C56.4781755,90.9149836 54.6081426,92.3005027 52.9740817,93.8447706 C50.7379671,95.9575419 48.2357188,97.9302651 45.8990649,99.9923365 C44.7209797,101.032099 43.3489126,101.94719 41.8431872,103.074639 C42.6415883,103.074639 43.1224032,103.063418 43.6020353,103.076301 C45.4135187,103.126585 47.1782809,103.334787 48.4302922,101.920178 C48.8862679,101.405283 49.6953144,100.880415 50.442263,100.433259 C52.9226291,98.9488336 55.0002463,97.1909614 57.1559293,95.4925161 C59.7025332,93.486547 62.0628435,91.366711 64.6656311,89.3902476 C67.7403626,87.0559762 70.7234257,84.6626934 73.8850942,82.1858805 Z M31.4740266,82.3753817 C31.3693473,82.2756442 31.264668,82.1763224 31.1599888,82.0765849 C29.3875383,82.0765849 27.6073995,82.0063532 25.8444115,82.1002726 C24.5841206,82.1671798 23.0902234,81.6684926 22.0895606,82.3728882 C20.0279115,83.8240678 17.723785,85.0803439 15.6432108,86.5049269 C12.7405792,88.4926107 9.57536229,90.2729239 6.6112242,92.2124013 C4.95942099,93.2933057 3.80617492,94.1140617 4.22725759,95.7597293 C4.55253212,97.0259791 4.61285576,98.3254747 4.78968683,99.6025294 C14.5520626,94.4502599 22.6165054,88.1156864 31.4740266,82.3753817 Z M76.0585194,102.75257 C78.6488875,102.75257 80.9133897,102.69439 83.1684293,102.772933 C84.6824344,102.826126 85.5624498,102.398918 86.3750447,101.534527 C88.9074548,98.8428626 91.5983623,96.2247551 94.1508803,93.5422337 C96.0356983,91.561199 97.8022347,89.5253087 99.6125354,87.510197 C99.7420538,87.3659933 99.8822175,87.1918684 99.8845831,87.0306262 C99.9040996,85.3716603 99.8964113,83.7122788 99.8964113,82.0562219 C98.0606801,82.0499883 98.077831,82.0587153 97.2534079,82.8744844 C96.025053,84.0896187 94.8345482,85.3280252 93.5127508,86.4920441 C89.167083,90.3169746 84.3666224,93.8892369 80.6549443,98.0674041 C79.2816943,99.6129187 77.7144625,101.073656 76.0585194,102.75257 Z M30.4585786,103.074223 C33.0448068,103.074223 35.512162,103.066743 37.9801086,103.079626 C38.5117846,103.082535 38.9713088,102.99194 39.3332506,102.731791 C42.2276026,100.652266 45.0563082,98.5311831 47.5881268,96.2239239 C49.3647172,94.6052685 51.060876,92.9379911 52.9492425,91.3866585 C55.5461161,89.2522775 58.3014871,87.2134782 60.9675554,85.1206544 C62.1308554,84.2080569 63.2421115,83.2634604 64.5136392,82.2212042 C62.2195666,82.0287941 60.1945848,82.0932078 58.1761085,82.1160643 C57.7207242,82.1214668 57.2132959,82.2187108 56.8271063,82.4925731 C53.5696298,84.8044037 50.5043609,87.2404904 47.4787163,89.6994337 C45.8671289,91.0097341 44.2898431,92.3474624 42.7036862,93.6689834 C39.7519677,96.1283422 36.7186348,98.5615199 33.3263172,100.743692 C32.2812988,101.415673 31.1800967,102.048174 30.4585786,103.074223 Z M95.5578405,82.0790784 C92.8190289,82.0790784 90.4599015,82.0886365 88.100774,82.0724292 C87.4502249,82.0682735 87.0451103,82.242814 86.6204792,82.5968819 C84.1395216,84.668927 81.8229755,86.8336448 79.3845994,88.9264686 C74.1287543,93.4387562 69.325928,98.1912447 64.2072897,102.848983 C66.577654,103.073392 68.9456525,102.645352 71.2746182,102.853138 C72.9660458,103.004407 73.9111161,102.352789 74.7006461,101.562785 C77.1047206,99.1562044 79.4153526,96.7039103 81.7620605,94.2699014 C84.1803288,91.7619206 87.2639313,89.6354355 89.8933324,87.2488019 C91.7136869,85.5960695 93.5222133,83.9371036 95.5578405,82.0790784 Z M54.4076552,82.1401676 C52.0414309,82.1401676 49.7479497,82.1493101 47.45506,82.1306094 C47.1114518,82.1277004 46.9174699,82.2079059 46.6962832,82.3649923 C43.8332759,84.4017138 40.7011779,86.2252465 37.9984422,88.4070028 C35.1709194,90.6897432 32.3658702,93.0181967 29.1083936,95.0495157 C25.9662416,97.0089406 23.3173241,99.3253424 20.4992639,101.51541 C19.8972103,101.983345 19.0538621,102.32453 18.7025656,102.972408 C20.1769464,103.230894 21.5602502,102.876826 22.9405971,102.998589 C25.5297823,103.227154 27.6984764,103.055938 29.5868429,101.388245 C32.4610869,98.8507585 36.0722256,96.7670773 39.075988,94.270317 C44.0237094,90.1578103 48.9607853,86.0282651 54.4076552,82.1401676 Z M84.5458191,82.0711825 C82.4883098,82.0711825 80.8991959,82.1322717 79.3236843,82.0553907 C77.3939192,81.9618869 76.0981438,82.5852458 74.9088218,83.5659972 C72.4095306,85.6268219 69.8321735,87.6411024 67.2607305,89.6587075 C65.5486036,91.0022538 63.7134639,92.2718282 62.0776287,93.6585941 C60.1661972,95.2793273 58.2878847,96.9179302 56.2220957,98.4434973 C54.1687263,99.9590907 52.0863779,101.455568 49.8271984,103.098326 C53.5944689,103.098326 57.0879174,103.09708 60.5819572,103.099989 C61.1934734,103.100404 61.5560066,102.866021 61.9061203,102.536888 C64.2906783,100.297782 66.6888387,98.0665729 69.1035585,95.843675 C71.6164522,93.5305977 74.115152,91.2112869 76.7451444,88.9597144 C79.2982538,86.7742179 81.5083464,84.3963113 84.5458191,82.0711825 Z M43.6907465,82.3961603 C43.1259517,82.1950231 42.7214284,82.0977791 42.2642699,82.099857 C39.7945491,82.111493 37.3248283,82.1098307 34.8556989,82.1231291 C34.0584806,82.1272848 33.456427,82.2735664 33.2121754,82.9347424 C33.0743772,83.3087578 32.6107132,83.6561765 32.1914047,83.9408437 C26.8279234,87.5741952 21.3828278,91.1501977 16.0920897,94.8346646 C12.9664971,97.011434 9.32874506,98.7493588 6.12863508,100.860468 C5.09958474,101.539098 4.62231829,102.108017 5.02920716,103.054691 C7.99334525,103.054691 10.9184504,103.011472 13.8394157,103.074639 C15.1168575,103.102066 15.9809049,102.73844 16.7509185,102.112172 C18.2596009,100.884987 19.9137697,99.7525511 21.4478827,98.5378323 C23.8679252,96.6220425 26.3512484,94.731187 29.108985,93.0327417 C31.6798366,91.44941 33.6764308,89.4829203 35.9894285,87.724217 C38.4218905,85.8740876 40.6834356,83.9159094 43.6907465,82.3961603 Z M6.17180788,80.8510613 C19.521666,80.5048893 32.5160879,80.6482618 45.5093269,80.6357946 C50.6729122,80.6312233 55.8364975,80.6324701 61.0000829,80.6303922 C66.4481356,80.6278988 71.8967797,80.6254053 77.3454238,80.6220807 C84.1720491,80.6183406 90.9986744,80.6137693 97.8258911,80.6083668 C98.5663342,80.6079513 99.2387653,80.5755366 99.9135621,80.2256245 C100.80718,79.762261 101.568322,80.0377856 101.673002,80.8215556 C102.101181,84.0418279 102.091719,87.2641781 101.744562,90.4910995 C101.580742,92.0112642 101.60913,93.5414026 101.540526,95.0669697 C101.42461,97.652247 101.670636,100.247498 101.024227,102.819062 C100.904762,103.293645 100.629758,103.46403 100.016467,103.533846 C97.9565923,103.767398 95.8683298,103.661012 93.7954439,103.850513 C91.5918568,104.05165 89.1416525,103.6527 87.1740373,104.191698 C85.2046478,104.730696 83.576501,104.355018 81.7673832,104.322188 C77.5524166,104.246138 73.3309446,104.273981 69.1136125,104.328006 C66.4422215,104.362498 63.7749703,104.554493 61.1029879,104.611426 C58.3428856,104.670438 55.5792349,104.662126 52.8173585,104.66462 C51.0165204,104.665866 49.2275105,104.44395 47.426081,104.872821 C46.423644,105.11136 45.4223899,104.561558 44.2898431,104.588154 C39.707612,104.69745 35.1182841,104.554908 30.5319132,104.542441 C26.4837238,104.531221 22.4308032,104.534961 18.3802481,104.508364 C14.3302845,104.480936 10.2797295,104.529558 6.22976589,104.544103 C5.62712089,104.546181 5.05168067,104.600206 4.50699369,104.813395 C3.41052281,105.242266 2.92201961,104.899418 2.85992174,104.116895 C2.77002769,102.97781 2.63518661,101.837479 2.64464914,100.698394 C2.66416562,98.3695254 2.20641564,96.0780579 1.86576449,93.7691364 C1.37726129,90.4591004 0.703055896,87.1669341 0.171971298,83.8618849 C0.0560552834,83.1421132 0.1577775,82.4281594 0.0164309314,81.7125433 C-0.111904656,81.0621722 0.529181874,80.8901251 1.32344314,80.8597883 C3.05981773,80.7924655 4.79560091,80.760882 6.17180788,80.8510613 Z" id="Fill-3524" fill="#F3C796"></path>
                <path d="M38.8619823,61.8365186 C39.3484135,62.9559787 40.3302286,63.7733486 41.2255008,64.6519996 C40.8697793,64.0309884 40.7450381,63.3987567 40.7331011,62.7583254 C40.7163894,61.8425604 39.9930094,61.7130932 38.8619823,61.8365186 Z M69.3931507,67.9900966 C67.2474817,69.4345195 65.3948652,71.0610596 63.7051882,72.7881526 C65.9147199,71.3830015 67.9660869,69.8794552 69.3931507,67.9900966 Z M49.9818595,72.0618414 C48.2092206,68.9071562 46.6532376,65.6527814 43.0238042,63.2593636 C44.4669829,66.5491262 47.1342971,69.3378506 49.9818595,72.0618414 Z M60.1485703,71.0856584 C61.9970089,69.3512289 64.4118564,68.0595774 66.5772213,66.581493 C66.9019067,66.3601041 67.2062992,66.0454987 67.5954442,65.9665236 C68.9335777,65.6933478 70.1941209,65.3532805 71.2982899,64.7115545 C71.8044171,64.4176639 72.4693059,64.4521885 72.9646898,64.7741303 C73.5149838,65.132323 73.4171007,65.623867 73.2458053,66.0830442 C72.6035967,67.8010744 71.1711613,69.1898264 69.6378584,70.5293808 C68.4417748,71.5737499 67.2068961,72.595678 65.7667016,73.8161225 C67.5793293,73.6374577 69.0809992,73.4760552 70.5880406,73.3439986 C73.0452643,73.1286514 75.5275556,73.3189683 78.0002974,72.9983211 C79.0579122,72.8610858 80.0045134,73.6944233 80.77206,74.263216 C81.1934348,74.5752321 80.9779726,75.1315097 80.5530168,75.5596147 C80.198489,75.9173758 79.7550308,76.0580635 79.1933968,76.1504168 C77.7824478,76.3817316 76.3876138,76.6648334 74.9778585,76.9008953 C74.0855706,77.0506457 73.3251861,77.3220954 72.5988219,77.7493373 C70.8088745,78.8010428 68.562935,78.7004899 66.4453179,78.8394514 C62.7365037,79.0832814 58.9966534,79.0552302 55.3481209,79.7560795 C53.6679934,80.0788845 51.9586204,80.0633484 50.1680761,79.8147713 C47.1683175,79.3983184 44.0820159,79.7306176 41.0357031,79.6762414 C35.5984168,79.579141 30.1372565,79.891157 24.7292158,79.2196536 C23.8452837,79.1104695 23.211431,78.7829174 23.0335703,78.1567275 C22.8389978,77.4727089 23.5205983,77.2038486 24.2935166,77.0364043 C24.3890123,77.0161211 24.551355,77.0346781 24.5806006,76.9949748 C26.3072822,74.6831214 29.510566,75.3563511 32.2035447,75.0572818 C33.3662048,74.9286776 34.5790002,75.0357039 35.8001514,75.0357039 C35.7464351,74.5514964 35.2229993,74.5152456 34.8499692,74.3900939 C32.6589398,73.6551515 30.7370889,72.6327919 28.8588079,71.5500142 C28.2780746,71.214694 27.8107426,70.839239 27.651981,70.3485582 C27.4305503,69.660224 27.1524191,69.0487071 26.5340845,68.454884 C25.8996349,67.8455249 26.5621363,67.2499756 27.7015194,67.2288292 C32.7060908,67.1356128 37.4946032,67.9119847 42.1858294,69.0901366 C42.3213139,69.1242297 42.4424741,69.216583 42.6639048,69.0353288 C41.1688002,67.5598338 39.6408691,66.0614663 38.3612267,64.4478729 C37.6772388,63.584758 36.7622706,62.7958709 36.7819666,61.696694 C36.8034531,60.5556561 37.3364385,60.1025207 38.9204734,60.1672543 C40.1690796,60.2186097 41.3293524,60.3467822 42.6555489,60.1154674 C44.8913419,59.725771 46.7857378,60.6518934 48.0928352,61.8977998 C50.1048102,63.8156412 51.2585176,66.0804548 52.4360989,68.3150594 C52.821066,69.0461178 53.1367986,69.7961646 53.622633,70.831471 C54.1180169,67.2279661 56.1741587,64.3494778 58.4254698,61.5175977 C58.9894912,60.8081172 59.9211711,60.4598503 60.7848104,60.1102888 C61.4837195,59.8271871 62.3205006,60.0977736 62.3843633,60.8223586 C62.4512103,61.5775842 62.5407375,62.3587032 62.3557146,63.0936456 C61.6896321,65.7442715 61.0313086,68.39835 60.1485703,71.0856584 Z" id="Fill-3525" fill="#F3C796"></path>
                <path d="M262.099926,72.5344083 C261.390319,74.2014001 260.680038,75.869629 259.969758,77.5372393 C261.43547,75.6871568 262.205053,73.9304753 262.099926,72.5344083 Z M269.251252,64.2285211 C271.830231,64.1771815 274.471881,64.6627431 277.018514,63.7850209 C274.430774,63.8301751 271.828883,63.5487349 269.251252,64.2285211 Z M243.22897,56.5003595 C247.488632,59.9555789 252.94984,59.9895991 258.15834,61.3906145 C254.493724,57.170249 246.524294,54.0187376 243.22897,56.5003595 Z M266.935764,61.8526712 C268.367781,61.8390631 269.071997,61.7011265 269.785647,61.3052546 C273.902444,59.0209501 276.68359,55.8137692 277.806965,51.4752607 C278.11426,50.2864079 278.747717,48.6763227 277.597386,48.0268454 C276.265104,47.2753073 274.850608,48.4140576 273.7771,49.3579646 C271.34166,51.4987656 269.648847,54.1158499 268.194591,56.8745822 C267.381205,58.4166269 266.038816,59.8467141 266.935764,61.8526712 Z M252.718696,43.3895773 C251.872289,45.3175971 252.449814,47.1540716 253.18368,48.7932286 C254.417574,51.5494867 256.096909,54.1288395 258.054561,56.5281943 C259.611248,58.4364205 261.021027,60.4634083 263.135695,62.2794706 C263.574398,60.869177 264.094642,59.8689819 263.655939,58.511265 C263.159955,56.9766429 262.523803,55.4871749 261.95167,53.9896658 C260.838403,51.0707291 259.496687,48.1808643 257.216915,45.8514056 C256.10567,44.7163667 254.944556,43.3512272 252.718696,43.3895773 Z M265.05224,73.3700691 C263.461858,76.7312689 261.897085,79.9638103 259.929324,83.0305804 C259.468383,83.7487168 258.886816,84.0771667 258.02491,84.0951047 C257.359106,84.1093313 256.878622,83.7864483 256.777538,83.2415059 C256.6185,82.3835773 256.373878,81.442763 256.596936,80.6380297 C257.511405,77.3355921 258.818079,74.1519161 260.333659,71.034425 C261.009571,69.6445435 261.409862,68.1414674 261.963126,66.6111751 C255.31587,66.6111751 248.870781,66.6111751 242.329326,66.6111751 C242.26598,67.5488967 242.175005,68.3678566 242.161527,69.1874352 C242.088073,73.4523363 242.051009,77.7178559 241.970142,81.982757 C241.909492,85.178804 241.88658,85.1559176 245.504698,85.0049915 C251.309591,84.7631385 257.115158,84.5200484 262.922746,84.3468545 C265.585961,84.2676801 265.604156,84.3425246 265.49566,81.9976022 C265.362903,79.1213455 265.20117,76.2457073 265.05224,73.3700691 Z M291.887234,102.713455 C292.218788,96.753727 292.297633,90.9770901 292.026729,85.1936492 C284.007432,85.6291083 276.164694,86.0546705 268.135289,86.4901296 C268.937893,92.1022323 268.586122,97.7199018 268.266024,103.106852 C272.270955,103.106852 276.16739,103.157573 280.060455,103.092007 C283.988563,103.026441 287.914649,102.845824 291.887234,102.713455 Z M241.34275,103.448292 C241.900058,103.554064 242.286871,103.694475 242.672336,103.689526 C250.033242,103.604785 257.393474,103.497776 264.75438,103.411797 C265.468704,103.403138 265.686371,103.087677 265.856191,102.496344 C266.269286,101.061927 266.093401,99.6077159 266.176963,98.1627835 C266.399347,94.3073624 266.540864,90.453797 265.697153,86.5315725 C257.648205,86.4338416 249.727296,87.4519746 241.68913,87.2076474 C241.70126,92.7418128 241.711368,98.0396921 241.34275,103.448292 Z M292.816529,66.4936506 C291.115629,66.4936506 289.763131,66.4553005 288.413328,66.5010732 C284.2999,66.6408655 280.098193,65.8738637 276.097979,66.9526146 C274.131567,67.4833304 272.302628,67.5853911 270.340259,67.4721965 C269.315945,67.4128157 268.392715,67.0169438 267.353576,66.8876669 C267.422987,72.6358505 267.315164,78.3320759 268.053074,84.1322177 C276.096631,83.9373745 284.010801,83.5439768 292.036837,82.7856347 C292.711402,77.3720865 292.049641,72.0296716 292.816529,66.4936506 Z M265.643242,56.711285 C267.122432,53.9488415 268.475604,51.6775265 270.247936,49.6765178 C271.61526,48.1338545 272.968432,46.5052128 275.210465,45.8841888 C278.766586,44.8988389 280.786235,46.4248013 280.50118,49.8460004 C280.220167,53.2208083 278.599461,56.0735602 276.535334,58.7729116 C275.809554,59.7217671 275.137685,60.7064984 273.566846,61.4951494 C275.461153,61.5297882 276.794782,61.4407171 278.119651,61.4357687 C281.009293,61.4246348 280.855646,62.0710193 280.733672,64.3707876 C284.504089,64.3707876 288.265072,64.3404787 292.025381,64.3819215 C294.322,64.4072821 295.026216,65.0617078 294.99926,67.2482814 C294.958153,70.5624714 294.807201,73.8754243 294.683879,77.1877587 C294.63199,78.5850628 294.180483,80.0633969 294.541014,81.3574031 C295.060584,83.2210938 294.520798,84.9598373 294.494516,86.7523948 C294.419714,91.7731637 294.347608,96.7933142 294.277523,101.814083 C294.263372,102.826649 294.303131,103.844164 293.81793,104.89508 C289.943733,105.035491 286.025734,105.208685 282.105713,105.311982 C275.864813,105.477135 269.620544,105.751153 263.380991,105.690535 C257.244545,105.631154 251.120902,106.030737 244.986476,105.893419 C243.801103,105.866822 242.611012,105.916924 241.426313,105.989913 C239.802237,106.088881 238.967286,105.462909 239.000981,103.964781 C239.077804,100.565231 239.219321,97.1675368 239.324448,93.7692241 C239.441705,89.939782 239.482139,86.1072473 239.673524,82.2815166 C239.95184,76.7108568 239.937689,71.1383413 239.936341,65.5658259 C239.936341,64.5848059 240.417499,64.2340881 241.356902,64.2810979 C244.970303,64.462333 248.584378,64.2322324 252.18767,64.282335 C255.104268,64.3237778 258.013454,64.2173873 260.934769,64.2074905 C257.439299,63.4782202 253.918221,62.8361655 250.455098,61.991845 C247.601171,61.2953578 244.675813,60.6415507 242.400085,58.7116752 C241.310404,57.7875617 240.81779,56.7026253 241.452594,55.3603722 C242.096834,53.9977069 243.418333,53.439775 244.851024,53.4230741 C247.485936,53.3921466 250.159934,53.390291 252.556288,54.7053279 C253.017903,54.9583148 253.55432,55.0956329 254.356924,55.4011965 C253.005099,53.3469925 251.779293,51.5513423 251.023187,49.5744571 C250.142413,47.2740702 249.51839,44.894509 250.596615,42.4722679 C251.152574,41.2252714 252.236864,40.8405334 253.616318,41.0570259 C255.495799,41.3514556 256.870535,42.4172169 258.154297,43.609781 C261.070221,46.3196478 262.630951,49.7402284 264.122271,53.1973034 C264.569734,54.2352301 265.020567,55.2719196 265.643242,56.711285 Z" id="Fill-3526" fill="#F3C796"></path>
                <path d="M191.852736,7.0855307 C186.451658,9.05363146 181.976683,12.4591022 177.971342,16.5947148 C183.594374,14.9721774 188.154302,11.6979959 191.852736,7.0855307 Z M184.674231,90.5112039 C182.220174,94.8666641 179.04043,98.6573327 176.23699,102.862306 C178.810698,102.862306 181.171427,102.862306 183.615313,102.862306 C184.35177,98.741556 184.921312,94.7093647 184.674231,90.5112039 Z M191.243111,53.8499085 C193.593669,55.4495322 195.931664,57.0825976 199.038421,57.0082829 C198.983381,56.5729227 198.980988,56.3146791 198.914581,56.0756335 C198.481442,54.5187407 197.526621,53.2157564 196.925371,51.7424677 C196.354633,50.3447322 196.803327,49.5600929 198.183509,49.1445499 C199.182601,48.8441947 200.304934,48.8194231 201.320179,48.0236366 C199.556513,46.9770381 197.746182,46.5330078 196.233784,45.376795 C194.709421,44.2106736 193.617599,42.6407758 192.193744,41.1835885 C191.871282,45.4727848 191.563778,49.5718594 191.243111,53.8499085 Z M147.696464,52.904254 C151.927947,46.6543884 155.650312,40.664005 158.714593,33.7973274 C154.192356,33.6065864 149.779002,33.4207997 145.05934,33.2213886 C145.749132,39.8725535 147.088633,46.1428556 147.696464,52.904254 Z M164.098921,25.7930158 C164.822215,25.3712799 164.926312,24.7637573 164.923919,24.0354734 C164.920928,23.1703265 164.509326,22.4445197 164.331045,21.6443981 C163.184183,16.4974864 160.078623,12.7483102 156.311986,9.4320171 C154.168426,7.54504322 151.711976,6.17455644 149.323727,4.70064838 C147.545105,3.60264881 145.75332,2.41671018 143.589419,2.32629397 C143.232856,2.86135976 143.260376,3.36050677 143.292084,3.88566393 C143.433871,6.28850563 145.093441,7.73268781 146.56396,9.20783445 C148.88999,11.5406965 151.492415,13.5509089 154.049971,15.6137609 C156.755296,17.7955164 159.573692,19.8565105 161.495897,22.9523367 C162.136034,23.9834531 162.815656,25.1712496 164.098921,25.7930158 Z M187.332893,70.5620441 C187.195891,70.536034 187.05889,70.5106431 186.922487,70.484633 C181.457395,81.7154408 173.812248,91.5565639 168.054607,102.598489 C169.76084,102.529747 171.517328,103.001026 173.315693,102.851158 C173.779942,102.812143 174.14129,102.942194 174.382388,102.340864 C175.898375,98.5644393 178.937529,95.8420445 180.858538,92.3257209 C182.999107,88.4080981 185.718193,84.8255107 186.044842,80.0427409 C186.260813,76.8670264 186.888985,73.7210378 187.332893,70.5620441 Z M149.314155,78.2703355 C150.891165,73.8696672 152.268356,69.8480038 154.240217,66.0598124 C156.477704,61.7607074 158.238379,57.1872574 160.60509,52.9729951 C163.090855,48.5450781 165.412697,44.0323184 167.75787,39.5319445 C168.543384,38.0239755 169.374963,36.4856614 169.78836,34.6705251 C167.029191,34.4512967 164.397452,34.2172054 161.761524,34.0543324 C161.233262,34.0215101 160.646968,34.1880989 160.393905,34.8228702 C158.694252,39.0835792 156.445398,43.039598 154.109796,46.9466929 C152.511249,49.6220218 150.766129,52.1976452 149.211255,54.9088928 C148.557358,56.0490041 148.165499,56.8615114 148.249853,58.1861708 C148.666241,64.7171936 148.955798,71.2562672 149.314155,78.2703355 Z M185.403508,35.8607987 C181.272533,35.5177126 177.315052,35.1901086 173.358169,34.8600275 C172.686923,34.8036722 172.018668,34.7658956 171.723727,35.5839765 C170.177827,39.8614063 167.958885,43.7895571 165.841648,47.7722053 C163.301442,52.5506399 160.75645,57.3272168 158.448368,62.233225 C156.797174,65.7427363 155.093334,69.2243797 153.467865,72.7481346 C152.121783,75.6662249 152.027258,79.1478682 149.706613,81.6120195 C149.466113,81.8671666 149.689862,82.1799076 149.712596,82.4759278 C149.927969,85.1995613 150.014118,87.9368191 150.292308,90.6530211 C150.618359,93.8367864 150.682373,97.0539932 151.372763,100.197505 C151.521131,100.874388 151.702404,101.27321 152.446039,101.035403 C153.408039,98.1488964 154.95035,95.5392121 156.041574,92.7239238 C158.116334,87.368931 160.536889,82.1811462 163.475535,77.2900009 C167.611895,70.4028868 171.474253,63.3609505 175.161919,56.2112578 C177.550766,51.5802139 179.912093,46.9336878 182.293162,42.2983089 C183.363447,40.2156397 184.665856,38.2512546 185.403508,35.8607987 Z M166.172485,102.568763 C166.034287,101.789697 166.214961,101.166692 166.5452,100.66321 C167.836841,98.6920129 168.837129,96.5430797 170.045611,94.5316287 C172.515223,90.421407 175.164312,86.4245151 177.758362,82.3948009 C181.031434,77.3122953 183.974867,72.0297593 186.4026,66.4685432 C187.210848,64.6174881 188.247032,62.8605649 188.538384,60.7240175 C189.125275,56.4174811 189.318513,52.083696 189.614053,47.7616773 C189.843186,44.4125619 190.419907,41.0869794 190.307434,37.7087574 C190.275128,36.7346156 190.145306,36.0657834 189.001436,36.1586768 C188.562314,36.1945955 188.114218,36.1103722 187.681079,36.0818849 C186.137572,39.8236297 184.285961,43.3201359 182.403241,46.7770077 C180.099946,51.0073715 177.881603,55.2928521 175.687788,59.5739976 C173.264243,64.3035085 170.699508,68.9357909 168.096485,73.5532105 C166.231713,76.8608336 164.256861,80.1040506 162.469862,83.4556432 C160.34425,87.4420071 158.752283,91.6977618 156.958704,95.8494759 C156.228828,97.5395159 155.180679,99.1001244 154.837279,100.962327 C158.545286,101.711047 162.217397,102.42261 166.172485,102.568763 Z M193.564953,8.8412153 C192.017856,10.3070726 190.622118,11.6955188 189.191682,13.0362797 C186.262608,15.7815882 182.720319,17.325476 179.165466,18.84645 C177.404192,19.6001248 175.721889,20.485089 174.112573,21.5100124 C172.564878,22.4959207 171.989354,24.8393106 172.929816,26.3485181 C176.038368,25.2319399 179.188798,24.1060723 182.335638,22.967819 C183.323363,22.6111084 184.28656,22.173271 185.288643,21.8685808 C185.843229,21.7007535 186.543191,21.5570784 186.881207,22.2785502 C187.255119,23.0768138 186.595838,23.3437274 186.090309,23.6917679 C184.391853,24.8597472 182.384695,25.2245084 180.528897,25.9769447 C178.352432,26.8594317 176.102382,27.5480811 173.88703,28.3277661 C173.651316,28.4107508 173.28578,28.4819691 173.225356,28.6516543 C172.565477,30.5076637 171.771588,29.5861616 170.795229,28.9253801 C170.157486,28.4943549 170.033646,28.0596139 170.360295,27.5462233 C170.995048,26.5466907 170.405165,25.9317366 169.742893,25.5254829 C168.818583,24.9594527 167.289434,25.5422037 166.926889,26.4321222 C166.581096,27.2793097 166.72049,28.2683144 166.110266,29.0157963 C166.761172,29.4808824 167.005261,28.8783141 167.316356,28.6411264 C168.077341,28.0608525 168.81619,28.3667813 169.409662,28.7885172 C169.983991,29.1960094 169.946899,29.9311056 169.768019,30.6364759 C169.56162,31.450841 169.046519,31.684313 168.316644,31.6936024 C166.255643,31.7202318 164.413006,31.2984959 163.378617,29.1799079 C163.20931,28.8324867 162.973596,28.6516543 162.613444,28.5123143 C159.476775,27.292934 156.329934,26.1144269 153.017376,25.5013307 C152.47655,25.4003865 151.933332,25.4195845 151.374558,25.467889 C150.70391,25.5261022 150.016511,25.2529957 149.895064,24.4547321 C149.754474,23.5319913 150.563918,23.5518086 151.111324,23.4273315 C152.939603,23.0117885 154.684125,23.5635751 156.431638,24.0032703 C157.542604,24.2825697 158.646392,24.591595 159.949997,24.9396354 C159.39242,23.1288341 158.188125,22.0878091 157.050238,21.0003375 C154.174408,18.2525517 150.869029,16.0608876 147.8903,13.4474876 C146.657887,12.3655896 145.466754,11.2322905 144.133834,10.2247071 C144.731494,11.6571228 145.113782,13.1409395 145.960916,14.4191522 C147.173586,16.2485322 146.98334,17.3279531 145.40633,18.9089982 C142.443155,21.8791087 139.259223,24.6349452 136.645431,28.3655427 C138.489264,28.5983954 140.090802,28.3537763 141.715673,28.0274109 C144.855334,27.3969746 147.984825,26.6804571 151.183714,26.4277872 C151.823252,26.3770054 152.62791,26.2587212 152.731409,27.2025178 C152.827728,28.0763347 152.081101,28.3506798 151.437973,28.4386189 C146.782325,29.0740095 142.267267,30.6296637 137.531452,30.7343235 C136.513216,30.756618 135.466861,30.7169835 134.893729,29.6679077 C134.244021,28.4782534 134.652033,27.4644771 135.409428,26.4067313 C137.75879,23.1282148 140.75786,20.5210077 143.560104,17.7088159 C143.954955,17.3124709 144.4204,16.9805319 144.642354,16.3030297 C143.668389,14.9461672 143.078506,13.3013354 142.31094,11.7512548 C140.684873,8.46530682 141.327403,4.94650615 141.389023,1.49830445 C141.412355,0.212660276 142.325298,-0.0827406244 143.399172,0.0182034988 C145.219075,0.189746579 146.935479,0.755157527 148.509497,1.69090336 C152.091272,3.82311573 155.815432,5.79245506 158.839629,8.73841331 C161.741183,11.5642295 164.2778,14.7281775 165.684904,18.7343587 C166.231114,20.2906322 166.491955,21.9106925 166.908343,23.4192807 C167.124315,23.4849253 167.216446,23.531372 167.310971,23.5381842 C169.799129,23.7122044 171.026157,22.3132304 172.260963,20.157485 C174.659382,15.97171 178.274659,12.9025132 182.09095,10.0519255 C184.573724,8.19715464 187.136065,6.5628507 189.925745,5.32489179 C193.719303,3.64228331 195.375881,4.77310521 195.727658,9.0059462 C196.081228,13.2530308 194.882916,17.0331715 192.684316,20.6318605 C194.377986,23.1375042 196.142849,25.6270463 197.771907,28.2082433 C198.599897,29.5205169 199.422503,30.8674707 199.451817,32.5798051 C199.476346,34.0636217 198.773392,34.8513575 197.517647,35.0594386 C195.897563,35.3282101 194.257736,35.7809104 192.597568,35.1715299 C192.013668,37.0708896 192.525777,38.4611936 193.797675,39.9289088 C196.154814,42.6494458 198.721344,44.9024196 202.200816,45.8400233 C202.971373,46.0481044 203.750306,46.2208861 204.526845,46.4041956 C205.113139,46.5422971 205.846604,46.6097996 205.976426,47.3071191 C206.127785,48.1196264 205.525339,48.6150577 204.883408,48.9928241 C203.57023,49.7656969 202.145776,50.258651 200.72551,50.7615137 C200.257672,50.9268639 199.782654,51.0711583 199.186789,51.2649958 C199.646252,52.8794825 200.616029,54.1849439 200.909774,55.7697047 C201.031819,56.432344 201.146684,57.0894098 201.216082,57.758242 C201.297445,58.537927 200.764397,59.0785663 200.224768,59.1058151 C198.650151,59.1838455 197.051006,59.5455103 195.505704,58.6952264 C194.111761,57.9279272 192.620302,57.3507498 191.056454,56.6373287 C190.337946,64.6441175 189.292788,72.4663581 188.082511,80.2576343 C187.076838,86.7323018 187.2617,93.3165835 186.132187,99.7794846 C185.898867,101.112195 185.390945,102.566286 185.931173,104.069919 C186.200987,104.819879 185.367613,105.108467 184.754398,105.110944 C180.128064,105.125807 175.497542,105.232944 170.877789,105.050873 C166.685791,104.885523 162.458496,104.824833 158.33769,103.897757 C156.252759,103.428955 154.184579,103.301382 152.073324,103.290854 C149.9172,103.279087 149.541494,102.889554 149.287832,100.583941 C148.835548,96.4786737 148.435313,92.3672133 148.005165,88.2594687 C147.528952,83.7225568 147.307596,79.1583961 147.02103,74.6128141 C146.802067,71.1398409 146.58131,67.6309488 146.647118,64.1127674 C146.71173,60.7116317 146.22415,57.2894401 145.844255,53.8926394 C145.453592,50.4072804 144.905588,46.9411193 144.414417,43.468146 C144.251093,42.3144104 144.051274,41.1656291 143.83291,39.7963809 C140.486251,43.2910293 136.40852,44.8572115 132.05918,46.1422363 C133.785754,46.5373428 135.508739,46.9497893 137.238903,47.3250785 C139.293922,47.7703474 139.835346,48.8150881 138.944539,50.8141533 C138.239192,52.3958177 137.738449,54.0734718 136.986438,55.7591768 C138.689082,54.4995427 140.43839,53.2993605 142.072235,51.9505488 C142.72673,51.4092901 143.341141,51.1058385 143.900513,51.7040718 C144.434758,52.2762949 144.074008,53.007056 143.549933,53.4764772 C141.000155,55.7635118 138.264917,57.7607191 135.082181,59.0110638 C134.378031,59.2872668 133.625421,59.2878861 133.164164,58.6010945 C132.674788,57.8721912 133.181513,57.1767295 133.572176,56.6069836 C134.909284,54.6593193 136.106998,52.638579 136.913451,50.3887017 C136.978062,50.2078693 137.040281,50.0264176 137.115064,49.8127628 C134.579644,48.7085704 131.856969,48.6528344 129.389152,47.6446317 C128.407409,47.2433324 126.920737,47.1925507 127.003296,45.7341248 C127.08107,44.3456787 128.57911,44.5438512 129.504616,44.2589782 C132.891956,43.2167146 136.391769,42.6060956 139.487159,40.6026954 C141.020496,39.6112135 142.078816,38.2215288 143.165851,36.8720978 C143.563693,36.3779051 143.189782,35.2154995 143.164057,34.3577841 C143.064147,31.0284859 143.063549,31.0346788 146.280386,31.101562 C154.646434,31.2780594 162.986758,31.8750541 171.323492,32.6020995 C176.402109,33.0448912 181.49688,33.2882718 186.607803,33.5025458 C184.427749,32.7451553 182.260856,31.9722825 179.965338,31.675643 C179.220506,31.5796532 178.464307,31.4836634 177.749986,31.2601 C177.170872,31.0792676 176.53253,30.662486 176.627653,29.9676436 C176.735339,29.1786693 177.492136,29.2108724 178.097574,29.2610348 C181.195357,29.5161819 184.195026,30.2599481 187.17914,31.1362422 C189.286207,31.7555313 191.256871,32.8343329 193.469231,33.0962922 C194.778819,33.2511145 196.033368,32.95881 197.523032,32.8411451 C196.927166,30.2692374 195.476987,28.4318067 194.141076,26.5380206 C192.968489,24.876468 192.053153,23.0396565 190.562293,21.5855657 C189.844382,20.8851497 190.678953,19.9085308 191.083376,19.1926326 C192.847042,16.0732734 194.19791,12.8647366 193.564953,8.8412153 Z" id="Fill-3527" fill="#F4C898"></path>
            </g>
        </g>
    </g>
</svg>