<?xml version="1.0" encoding="UTF-8"?>
<svg width="30px" height="30px" viewBox="0 0 30 30" version="1.1" xmlns="http://www.w3.org/2000/svg" xmlns:xlink="http://www.w3.org/1999/xlink">
    <!-- Generator: Sketch 51.3 (57544) - http://www.bohemiancoding.com/sketch -->
    <title>icons8-instagram-filled</title>
    <desc>Created with Sketch.</desc>
    <defs></defs>
    <g id="Page-1" stroke="none" stroke-width="1" fill="none" fill-rule="evenodd">
        <g id="homepage--" transform="translate(-804.000000, -2366.000000)" fill="#000000" fill-rule="nonzero">
            <g id="icons8-instagram-filled" transform="translate(804.000000, 2366.000000)">
                <path d="M8.86363636,0 C3.975,0 0,3.975 0,8.86363636 L0,21.1363636 C0,26.025 3.975,30 8.86363636,30 L21.1363636,30 C26.025,30 30,26.025 30,21.1363636 L30,8.86363636 C30,3.975 26.025,0 21.1363636,0 L8.86363636,0 Z M23.1818182,5.45454545 C23.9318182,5.45454545 24.5454545,6.06818182 24.5454545,6.81818182 C24.5454545,7.56818182 23.9318182,8.18181818 23.1818182,8.18181818 C22.4318182,8.18181818 21.8181818,7.56818182 21.8181818,6.81818182 C21.8181818,6.06818182 22.4318182,5.45454545 23.1818182,5.45454545 Z M15,7.5 C19.1386364,7.5 22.5,10.8613636 22.5,15 C22.5,19.1386364 19.1386364,22.5 15,22.5 C10.8613636,22.5 7.5,19.1386364 7.5,15 C7.5,10.8613636 10.8613636,7.5 15,7.5 Z M15,8.86363636 C11.6181818,8.86363636 8.86363636,11.6181818 8.86363636,15 C8.86363636,18.3818182 11.6181818,21.1363636 15,21.1363636 C18.3818182,21.1363636 21.1363636,18.3818182 21.1363636,15 C21.1363636,11.6181818 18.3818182,8.86363636 15,8.86363636 Z" id="Shape"></path>
            </g>
        </g>
    </g>
</svg>