<?xml version="1.0" encoding="UTF-8"?>
<svg width="30px" height="29px" viewBox="0 0 30 29" version="1.1" xmlns="http://www.w3.org/2000/svg" xmlns:xlink="http://www.w3.org/1999/xlink">
    <!-- Generator: Sketch 51.3 (57544) - http://www.bohemiancoding.com/sketch -->
    <title>icons8-linkedin-2</title>
    <desc>Created with Sketch.</desc>
    <defs></defs>
    <g id="Page-1" stroke="none" stroke-width="1" fill="none" fill-rule="evenodd">
        <g id="homepage--" transform="translate(-629.000000, -2363.000000)" fill="#000000" fill-rule="nonzero">
            <g id="icons8-linkedin-2" transform="translate(629.000000, 2363.000000)">
                <path d="M6.52173913,28.6956522 L0,28.6956522 L0,9.13043478 L6.52173913,9.13043478 L6.52173913,28.6956522 Z M3.26217391,6.52173913 C1.45826087,6.52173913 0,5.05956522 0,3.25956522 C0,1.45956522 1.46086957,0 3.26217391,0 C5.05956522,0 6.52173913,1.46217391 6.52173913,3.25956522 C6.52173913,5.05956522 5.05956522,6.52173913 3.26217391,6.52173913 Z M30,28.6956522 L23.73,28.6956522 L23.73,19.173913 C23.73,16.9030435 23.6869565,13.9826087 20.4704348,13.9826087 C17.2056522,13.9826087 16.7034783,16.4556522 16.7034783,19.0095652 L16.7034783,28.6956522 L10.4347826,28.6956522 L10.4347826,9.11608696 L16.4530435,9.11608696 L16.4530435,11.7913043 L16.5378261,11.7913043 C17.3752174,10.2521739 19.4217391,8.62956522 22.473913,8.62956522 C28.826087,8.62956522 30,12.6847826 30,17.9569565 C30,17.9569565 30,28.6956522 30,28.6956522 Z" id="Shape"></path>
            </g>
        </g>
    </g>
</svg>