<?xml version="1.0" encoding="UTF-8"?>
<svg width="30px" height="30px" viewBox="0 0 30 30" version="1.1" xmlns="http://www.w3.org/2000/svg" xmlns:xlink="http://www.w3.org/1999/xlink">
    <!-- Generator: Sketch 51.3 (57544) - http://www.bohemiancoding.com/sketch -->
    <title>icons8-github-filled</title>
    <desc>Created with Sketch.</desc>
    <defs></defs>
    <g id="Page-1" stroke="none" stroke-width="1" fill="none" fill-rule="evenodd">
        <g id="homepage--" transform="translate(-756.000000, -2366.000000)" fill="#000000" fill-rule="nonzero">
            <g id="icons8-github-filled" transform="translate(756.000000, 2366.000000)">
                <path d="M10.2984783,29.2408696 C10.7621739,29.0413043 11.0869565,28.5802174 11.0869565,28.0434783 L11.0869565,24.5217391 C11.0869565,24.3932609 11.0973913,24.2595652 11.1136957,24.123913 C11.1045652,24.1265217 11.096087,24.1284783 11.0869565,24.1304348 C11.0869565,24.1304348 9.13043478,24.1304348 8.73913043,24.1304348 C7.76086957,24.1304348 6.91304348,23.7391304 6.52173913,22.9565217 C6.06521739,22.1086957 5.86956522,20.673913 4.69565217,19.8913043 C4.5,19.7608696 4.63043478,19.5652174 5.02173913,19.5652174 C5.41304348,19.6304348 6.26086957,20.1521739 6.7826087,20.8695652 C7.36956522,21.5869565 7.95652174,22.173913 9,22.173913 C10.6219565,22.173913 11.4913043,22.0923913 12.0143478,21.8119565 C12.6234783,20.906087 13.4667391,20.2173913 14.3478261,20.2173913 L14.3478261,20.201087 C10.6513043,20.0823913 8.28978261,18.8536957 7.19021739,16.9565217 C4.8,16.983913 2.71891304,17.2206522 1.53130435,17.4176087 C1.49347826,17.2043478 1.46086957,16.9897826 1.43282609,16.773913 C2.60478261,16.5808696 4.59130435,16.3519565 6.87521739,16.3082609 C6.80217391,16.1282609 6.73891304,15.9436957 6.68543478,15.7545652 C4.39565217,15.6384783 2.41956522,15.7291304 1.34608696,15.8178261 C1.33304348,15.6013043 1.31543478,15.3854348 1.31282609,15.1663043 C2.38826087,15.0782609 4.31086957,14.9902174 6.54195652,15.093913 C6.49043478,14.7678261 6.45717391,14.4345652 6.45717391,14.0876087 C6.45717391,12.978913 6.84847826,11.805 7.56586957,10.8267391 C7.23978261,9.71804348 6.78326087,7.37021739 7.69630435,6.5223913 C9.45717391,6.5223913 10.6963043,7.37021739 11.2832609,7.89195652 C12.3913043,7.43478261 13.6304348,7.17391304 15,7.17391304 C16.3695652,7.17391304 17.6086957,7.43478261 18.6521739,7.89130435 C19.2391304,7.36956522 20.4782609,6.52173913 22.2391304,6.52173913 C23.2173913,7.43478261 22.6956522,9.7826087 22.3695652,10.826087 C23.0869565,11.8043478 23.4782609,12.9130435 23.4130435,14.0869565 C23.4130435,14.4026087 23.3836957,14.7071739 23.3413043,15.0058696 C25.6232609,14.8936957 27.5980435,14.9836957 28.6917391,15.0723913 C28.6904348,15.2921739 28.6702174,15.5067391 28.6584783,15.723913 C27.5686957,15.633913 25.5443478,15.5413043 23.2069565,15.6658696 C23.148913,15.885 23.0784783,16.0982609 22.995,16.305 C25.3076087,16.335 27.3417391,16.5586957 28.5697826,16.7543478 C28.5417391,16.9708696 28.5091304,17.1854348 28.4713043,17.3980435 C27.2243478,17.1984783 25.098913,16.965 22.6806522,16.9532609 C21.5947826,18.8302174 19.2763043,20.0543478 15.6521739,20.1971739 L15.6521739,20.2173913 C17.3478261,20.2173913 18.9130435,22.7608696 18.9130435,24.5217391 L18.9130435,28.0434783 C18.9130435,28.5802174 19.2378261,29.0413043 19.7015217,29.2408696 C25.676087,27.2634783 30,21.6286957 30,15 C30,6.72913043 23.2715217,0 15,0 C6.72847826,0 0,6.72913043 0,15 C0,21.6286957 4.32391304,27.2634783 10.2984783,29.2408696 Z" id="Shape"></path>
            </g>
        </g>
    </g>
</svg>