<?xml version="1.0" encoding="UTF-8"?>
<svg width="30px" height="26px" viewBox="0 0 30 26" version="1.1" xmlns="http://www.w3.org/2000/svg" xmlns:xlink="http://www.w3.org/1999/xlink">
    <!-- Generator: Sketch 51.3 (57544) - http://www.bohemiancoding.com/sketch -->
    <title>icons8-medium-filled (1)</title>
    <desc>Created with Sketch.</desc>
    <defs></defs>
    <g id="Page-1" stroke="none" stroke-width="1" fill="none" fill-rule="evenodd">
        <g id="homepage--" transform="translate(-699.000000, -2366.000000)" fill="#000000" fill-rule="nonzero">
            <g id="icons8-medium-filled-(1)" transform="translate(699.000000, 2366.000000)">
                <path d="M10,24.6986607 C10,25.3348214 9.65959857,25.7142857 9.17689714,25.7142857 C9.00669643,25.7142857 8.81696429,25.6668529 8.61607143,25.5664064 L0.831473571,21.6238843 C0.373884286,21.3922993 0,20.77846 0,20.2622771 L0,0.9375 C0,0.426897143 0.270647143,0.125557857 0.658482143,0.125557857 C0.795200714,0.125557857 0.948660714,0.161830714 1.10770071,0.242745714 L1.38113857,0.382254286 C1.38113857,0.382254286 1.38392857,0.382254286 1.38392857,0.382254286 L9.96372786,4.72656286 C9.97767857,4.73493286 9.98883929,4.74888429 10,4.760045 L10,24.6986607 Z M18.9899557,1.34486643 L19.5145093,0.482700714 C19.7014507,0.175781429 20.0446429,0 20.393415,0 C20.4743307,0 20.5580357,0.0111607143 20.6389507,0.0334821429 C20.700335,0.0474328571 20.7645093,0.0697542857 20.8314736,0.103236429 L29.8800221,4.68471 C29.8828129,4.68471 29.8828129,4.6875 29.8828129,4.6875 L29.8911829,4.69029 C29.8967636,4.69308071 29.8967636,4.70145071 29.9023436,4.70424143 C29.9469864,4.74051357 29.9665179,4.80189714 29.9358257,4.85212071 L20.9235493,19.68471 L20.00279,21.1969864 L14.0318079,9.50334857 L18.9899557,1.34486643 Z M11.4285714,16.8610493 L11.4285714,7.54464286 L17.8431921,20.1116071 L12.0731029,17.19029 L11.4285714,16.8610493 Z M30,24.6986607 C30,25.2957593 29.6456471,25.6361607 29.1238843,25.6361607 C28.8895093,25.6361607 28.6216521,25.5691964 28.3398436,25.4268971 L27.0479914,24.7712057 L21.2779021,21.8498886 L30,7.49721 L30,24.6986607 Z" id="Shape"></path>
            </g>
        </g>
    </g>
</svg>