<?xml version="1.0" encoding="UTF-8"?>
<svg width="73px" height="68px" viewBox="0 0 73 68" version="1.1" xmlns="http://www.w3.org/2000/svg" xmlns:xlink="http://www.w3.org/1999/xlink">
    <!-- Generator: Sketch 51.3 (57544) - http://www.bohemiancoding.com/sketch -->
    <title>logo black and white</title>
    <desc>Created with Sketch.</desc>
    <defs></defs>
    <g id="logo-black-and-white" stroke="none" stroke-width="1" fill="none" fill-rule="evenodd">
        <rect id="Rectangle-3" fill="#000000" x="0" y="0" width="73" height="68"></rect>
        <path d="M17.1228924,62.8556745 L17.5,63.2084526 L17.1228924,62.8556745 L2.5,48.2327822 L17.5,48.2327822 L17.5,63.2327822 L17.1228924,62.8556745 Z" id="Combined-Shape" stroke="#FFFFFF" stroke-width="2" fill="#000000" transform="translate(9.750000, 55.732782) scale(-1, -1) translate(-9.750000, -55.732782) "></path>
        <rect id="Rectangle" fill="#EDF22E" transform="translate(41.112698, 31.112698) rotate(45.000000) translate(-41.112698, -31.112698) " x="19.6126984" y="8.61269837" width="43" height="45"></rect>
        <path d="M25.5,40.5 L41,26" id="Line" stroke="#FFFFFF" stroke-width="3" stroke-linecap="round" stroke-linejoin="round"></path>
        <path d="M5.5,29.5 L32,4" id="Line-Copy" stroke="#FFFFFF" stroke-width="3" stroke-linecap="round" stroke-linejoin="round"></path>
        <path d="M2.5,63.5 L28.5,63.5 C34.5751322,63.5 39.5,58.5751322 39.5,52.5 C39.5,46.4248678 34.5751322,41.5 28.5,41.5 L24.5,41.5 L24.5,37.5 C24.5,31.4248678 19.5751322,26.5 13.5,26.5 C7.42486775,26.5 2.5,31.4248678 2.5,37.5 L2.5,63.5 Z" id="Combined-Shape" stroke="#FFFFFF" stroke-width="3"></path>
    </g>
</svg>